<svg width="64" height="64" viewBox="0 0 64 64" fill="none" xmlns="http://www.w3.org/2000/svg">
<mask id="path-1-inside-1_759_997" fill="white">
<path d="M0 0H64V64H0V0Z"/>
</mask>
<path d="M63.5 0V64H64.5V0H63.5ZM0.5 64V0H-0.5V64H0.5Z" fill="white" fill-opacity="0.5" mask="url(#path-1-inside-1_759_997)"/>
<path d="M40.3337 35.492C40.3337 38.5253 38.5253 40.3337 35.492 40.3337H34.5003C34.042 40.3337 33.667 39.9587 33.667 39.5003V34.692C33.667 34.467 33.8503 34.2753 34.0753 34.2753L35.542 34.2503C35.6587 34.242 35.7587 34.1587 35.7837 34.042L36.0753 32.4503C36.1003 32.3003 35.9837 32.1587 35.8253 32.1587L34.0503 32.1837C33.817 32.1837 33.6337 32.0003 33.6253 31.7753L33.592 29.7337C33.592 29.6003 33.7003 29.4837 33.842 29.4837L35.842 29.4503C35.9836 29.4503 36.092 29.342 36.092 29.2003L36.0587 27.2003C36.0587 27.0587 35.9503 26.9503 35.8087 26.9503L33.5587 26.9837C32.1753 27.0087 31.0753 28.142 31.1003 29.5253L31.142 31.817C31.1503 32.0503 30.967 32.2337 30.7337 32.242L29.7337 32.2587C29.592 32.2587 29.4837 32.367 29.4837 32.5086L29.5087 34.092C29.5087 34.2337 29.617 34.342 29.7587 34.342L30.7587 34.3253C30.992 34.3253 31.1753 34.5087 31.1836 34.7337L31.2586 39.4837C31.267 39.9503 30.892 40.3337 30.4253 40.3337H28.5087C25.4753 40.3337 23.667 38.5253 23.667 35.4837V28.5087C23.667 25.4753 25.4753 23.667 28.5087 23.667H35.492C38.5253 23.667 40.3337 25.4753 40.3337 28.5087V35.492Z" fill="white"/>
</svg>
