<svg width="20" height="20" viewBox="0 0 20 20" fill="none" xmlns="http://www.w3.org/2000/svg">
<path d="M13.492 1.66699H6.50866C3.47533 1.66699 1.66699 3.47533 1.66699 6.50866V13.4837C1.66699 16.5253 3.47533 18.3337 6.50866 18.3337H13.4837C16.517 18.3337 18.3253 16.5253 18.3253 13.492V6.50866C18.3337 3.47533 16.5253 1.66699 13.492 1.66699ZM10.0003 13.2337C8.21699 13.2337 6.76699 11.7837 6.76699 10.0003C6.76699 8.21699 8.21699 6.76699 10.0003 6.76699C11.7837 6.76699 13.2337 8.21699 13.2337 10.0003C13.2337 11.7837 11.7837 13.2337 10.0003 13.2337ZM14.9337 5.73366C14.892 5.83366 14.8337 5.92533 14.7587 6.00866C14.6753 6.08366 14.5837 6.14199 14.4837 6.18366C14.3837 6.22533 14.2753 6.25033 14.167 6.25033C13.942 6.25033 13.7337 6.16699 13.5753 6.00866C13.5003 5.92533 13.442 5.83366 13.4003 5.73366C13.3587 5.63366 13.3337 5.52533 13.3337 5.41699C13.3337 5.30866 13.3587 5.20033 13.4003 5.10033C13.442 4.99199 13.5003 4.90866 13.5753 4.82533C13.767 4.63366 14.0587 4.54199 14.3253 4.60033C14.3837 4.60866 14.4337 4.62533 14.4837 4.65033C14.5337 4.66699 14.5837 4.69199 14.6337 4.72533C14.6753 4.75033 14.717 4.79199 14.7587 4.82533C14.8337 4.90866 14.892 4.99199 14.9337 5.10033C14.9753 5.20033 15.0003 5.30866 15.0003 5.41699C15.0003 5.52533 14.9753 5.63366 14.9337 5.73366Z" fill="white"/>
</svg>
